<svg width="16" height="16" viewBox="0 0 16 16" fill="none" xmlns="http://www.w3.org/2000/svg">
<path d="M6.72016 7.24065C6.7535 7.02065 6.82683 6.82732 6.92016 6.66065C7.0135 6.49398 7.14683 6.35398 7.3135 6.24732C7.4735 6.14732 7.6735 6.10065 7.92016 6.09398C8.0735 6.10065 8.2135 6.12732 8.34016 6.18065C8.4735 6.24065 8.5935 6.32065 8.68683 6.42065C8.78016 6.52065 8.8535 6.64065 8.9135 6.77398C8.9735 6.90732 9.00016 7.05398 9.00683 7.20065H10.2002C10.1868 6.88732 10.1268 6.60065 10.0135 6.34065C9.90016 6.08065 9.74683 5.85398 9.54683 5.66732C9.34683 5.48065 9.10683 5.33398 8.82683 5.22732C8.54683 5.12065 8.24016 5.07398 7.90016 5.07398C7.46683 5.07398 7.08683 5.14732 6.76683 5.30065C6.44683 5.45398 6.18016 5.65398 5.96683 5.91398C5.7535 6.17398 5.5935 6.47398 5.4935 6.82065C5.3935 7.16732 5.3335 7.52732 5.3335 7.91398V8.09398C5.3335 8.48065 5.38683 8.84065 5.48683 9.18732C5.58683 9.53398 5.74683 9.83398 5.96016 10.0873C6.1735 10.3407 6.44016 10.5473 6.76016 10.694C7.08016 10.8407 7.46016 10.9207 7.8935 10.9207C8.20683 10.9207 8.50016 10.8673 8.7735 10.7673C9.04683 10.6673 9.28683 10.5273 9.4935 10.3473C9.70016 10.1673 9.86683 9.96065 9.98683 9.72065C10.1068 9.48065 10.1802 9.22732 10.1868 8.95398H8.9935C8.98683 9.09398 8.9535 9.22065 8.8935 9.34065C8.8335 9.46065 8.7535 9.56065 8.6535 9.64732C8.5535 9.73398 8.44016 9.80065 8.30683 9.84732C8.18016 9.89398 8.04683 9.90732 7.90683 9.91398C7.66683 9.90732 7.46683 9.86065 7.3135 9.76065C7.14683 9.65399 7.0135 9.51398 6.92016 9.34732C6.82683 9.18065 6.7535 8.98065 6.72016 8.76065C6.68683 8.54065 6.66683 8.31398 6.66683 8.09398V7.91398C6.66683 7.68065 6.68683 7.46065 6.72016 7.24065ZM8.00016 1.33398C4.32016 1.33398 1.3335 4.32065 1.3335 8.00065C1.3335 11.6807 4.32016 14.6673 8.00016 14.6673C11.6802 14.6673 14.6668 11.6807 14.6668 8.00065C14.6668 4.32065 11.6802 1.33398 8.00016 1.33398ZM8.00016 13.334C5.06016 13.334 2.66683 10.9407 2.66683 8.00065C2.66683 5.06065 5.06016 2.66732 8.00016 2.66732C10.9402 2.66732 13.3335 5.06065 13.3335 8.00065C13.3335 10.9407 10.9402 13.334 8.00016 13.334Z" fill="#CBCBCB"/>
</svg>
