<svg width="25" height="24" viewBox="0 0 25 24" fill="none" xmlns="http://www.w3.org/2000/svg">
<path d="M16.2549 14.2559H15.4649L15.1849 13.9859C16.1649 12.8459 16.7549 11.3659 16.7549 9.75586C16.7549 6.16586 13.8449 3.25586 10.2549 3.25586C6.66488 3.25586 3.75488 6.16586 3.75488 9.75586C3.75488 13.3459 6.66488 16.2559 10.2549 16.2559C11.8649 16.2559 13.3449 15.6659 14.4849 14.6859L14.7549 14.9659V15.7559L19.7549 20.7459L21.2449 19.2559L16.2549 14.2559ZM10.2549 14.2559C7.76488 14.2559 5.75488 12.2459 5.75488 9.75586C5.75488 7.26586 7.76488 5.25586 10.2549 5.25586C12.7449 5.25586 14.7549 7.26586 14.7549 9.75586C14.7549 12.2459 12.7449 14.2559 10.2549 14.2559Z" fill="#0C0C0C"/>
</svg>
